<svg xmlns="http://www.w3.org/2000/svg" viewBox="0 0 626 560"><defs><style>.cls-1{fill:#48d848;}.cls-2{fill:#7de27d;}.cls-3{fill:#b3f4b3;}.cls-4{fill:#ede54f;}.cls-5{fill:#e5dc30;}.cls-6{fill:#5e605e;}</style></defs><g id="Camada_6" data-name="Camada 6"><polygon class="cls-1" points="0 483 366 0 598 142 354 483 0 483"/><polygon class="cls-2" points="28 560 394 77 626 219 382 560 28 560"/><path class="cls-3" d="M545,392.37S662.57,280.9,754.28,337,640,267,640,267Z" transform="translate(-246 -190)"/></g><g id="Camada_2" data-name="Camada 2"><polygon class="cls-4" points="107 283 117 273 472 273 480 283 482 517 472 527 118 527 107 519 107 283"/><path class="cls-5" d="M362,717s404.09-46.48,363-121.74L726,707l-10,10Z" transform="translate(-246 -190)"/></g><g id="Camada_3" data-name="Camada 3"><ellipse class="cls-6" cx="294.5" cy="360.5" rx="32.5" ry="30.5"/></g><g id="Camada_4" data-name="Camada 4"><polygon class="cls-6" points="314 386 322 457 265 457 275.48 385.23 314 386"/></g><g id="Camada_5" data-name="Camada 5"><path class="cls-6" d="M445,463s-32-153,95-160c124-3,97,160,97,160h36s27-190-133-196S409,463,409,463Z" transform="translate(-246 -190)"/></g></svg>